# xmcd CD database file
#
# Track frame offsets:
#	150
#	22376
#	49957
#	89214
#	117026
#	148716
#	174060
#	201975
#	232079
#	264157
#
# Disc length: 3912 seconds
#
# Revision: 1
# Processed by: cddbd v1.5.2PL0 Copyright (c) Steve Scherf et al.
# Submitted via: CDex 1.70beta2
#
DISCID=910f460a
DTITLE=Norful, Smokie - Live
DYEAR=2009
DGENRE=Gospel
TTITLE0=He's Gonna Come Through (Featuring Tye Tribbett)
TTITLE1=I Will Bless The Lord
TTITLE2=Justified
TTITLE3=Mighty God
TTITLE4=In The Presence Of The King
TTITLE5=Dear God
TTITLE6=No One Else
TTITLE7=Jesus Is Love (Featuring Heather Headley)
TTITLE8=Don't Quit
TTITLE9=I've Been Delivered
EXTD=YEAR: 2009
EXTT0=
EXTT1=
EXTT2=
EXTT3=
EXTT4=
EXTT5=
EXTT6=
EXTT7=
EXTT8=
EXTT9=
PLAYORDER=
